<svg width="606" height="916" viewBox="0 0 606 916" fill="none" xmlns="http://www.w3.org/2000/svg">
<g opacity="0.1" clip-path="url(#clip0_9_141)" filter="url(#filter0_f_9_141)">
<path d="M572 173H344L259.569 46.3531C246.922 27.2937 260.459 2 283.259 2H632.741C655.541 2 669.078 27.2937 656.431 46.3531L572 173ZM344 230H572C578.769 234.453 586.428 239.441 595.156 244.962C696.153 309.622 914 448.916 914 743C914 837.406 837.406 914 743 914H173C78.5938 914 2 837.406 2 743C2 448.916 219.847 309.622 320.844 244.962C329.394 239.441 337.231 234.453 344 230ZM493.625 386.75C493.625 367.156 477.594 351.125 458 351.125C438.406 351.125 422.375 367.156 422.375 386.75V411.688C408.838 414.716 395.3 419.525 382.831 426.828C358.072 441.613 336.697 467.441 336.875 505.025C337.053 541.184 358.25 563.984 380.872 577.522C400.466 589.278 424.869 596.759 444.284 602.459L447.312 603.35C469.756 610.119 486.144 615.462 497.188 622.409C506.272 628.109 507.519 632.028 507.697 637.016C507.875 645.922 504.491 651.266 497.188 655.719C488.281 661.241 474.209 664.625 459.069 664.091C439.297 663.378 420.772 657.144 396.547 648.95C392.45 647.525 388.175 646.1 383.722 644.675C365.019 638.441 344.891 648.594 338.656 667.119C332.422 685.644 342.575 705.95 361.1 712.184C364.484 713.253 368.225 714.5 371.966 715.925C386.75 721.091 403.85 726.969 422.197 730.888V757.25C422.197 776.844 438.228 792.875 457.822 792.875C477.416 792.875 493.447 776.844 493.447 757.25V732.669C507.697 729.641 521.947 724.653 534.772 716.638C560.244 700.784 579.481 673.709 578.947 636.481C578.412 600.322 558.106 576.988 535.128 562.381C514.644 549.556 488.994 541.719 469.044 535.663L467.797 535.306C444.997 528.359 428.787 523.372 417.387 516.603C408.125 511.081 407.947 507.875 407.947 504.669C407.947 498.078 410.441 493.091 418.991 488.103C428.609 482.403 443.216 479.019 457.288 479.197C474.388 479.375 493.269 483.116 512.862 488.459C531.922 493.447 551.337 482.225 556.503 463.166C561.669 444.106 550.269 424.691 531.209 419.525C519.631 416.497 506.806 413.469 493.625 411.153V386.75Z" fill="#212C56"/>
</g>
<defs>
<filter id="filter0_f_9_141" x="0" y="0" width="916" height="916" filterUnits="userSpaceOnUse" color-interpolation-filters="sRGB">
<feFlood flood-opacity="0" result="BackgroundImageFix"/>
<feBlend mode="normal" in="SourceGraphic" in2="BackgroundImageFix" result="shape"/>
<feGaussianBlur stdDeviation="1" result="effect1_foregroundBlur_9_141"/>
</filter>
<clipPath id="clip0_9_141">
<rect width="912" height="912" fill="white" transform="translate(2 2)"/>
</clipPath>
</defs>
</svg>
