<?xml version="1.0" standalone="no"?>
<!DOCTYPE svg PUBLIC "-//W3C//DTD SVG 20010904//EN"
 "http://www.w3.org/TR/2001/REC-SVG-20010904/DTD/svg10.dtd">
<svg version="1.0" xmlns="http://www.w3.org/2000/svg"
 width="512.000000pt" height="512.000000pt" viewBox="0 0 512.000000 512.000000"
 preserveAspectRatio="xMidYMid meet">

<g transform="translate(0.000000,512.000000) scale(0.100000,-0.100000)"
fill="#000000" stroke="none">
<path d="M0 2800 l0 -2010 1625 0 1625 0 0 -239 0 -239 291 95 292 95 278 -91
c153 -50 283 -91 289 -91 6 0 11 86 12 232 l3 233 352 3 353 2 0 2010 0 2010
-2560 0 -2560 0 0 -2010z m4820 0 l0 -1710 -205 0 -205 0 0 96 0 96 46 69
c243 366 115 869 -275 1073 -123 64 -198 81 -356 81 -131 -1 -146 -3 -228 -32
-125 -44 -190 -86 -292 -188 -132 -131 -192 -254 -215 -441 -20 -163 25 -353
116 -488 l44 -66 0 -100 0 -100 -1475 0 -1475 0 0 1710 0 1710 2260 0 2260 0
0 -1710z m-875 -605 c32 -9 80 -27 107 -42 58 -31 147 -123 177 -181 105 -205
40 -454 -151 -582 -178 -118 -420 -91 -567 65 -167 177 -167 446 1 617 117
119 275 164 433 123z m-196 -1174 c93 -12 225 0 307 28 l54 18 0 -169 0 -168
-27 6 c-16 4 -79 24 -140 45 l-113 38 -132 -45 c-73 -24 -136 -44 -140 -44 -4
0 -8 76 -8 169 l0 169 60 -19 c33 -10 95 -23 139 -28z"/>
<path d="M900 3840 l0 -150 1660 0 1660 0 0 150 0 150 -1660 0 -1660 0 0 -150z"/>
<path d="M900 3140 l0 -150 1660 0 1660 0 0 150 0 150 -1660 0 -1660 0 0 -150z"/>
<path d="M900 2440 l0 -150 830 0 830 0 0 150 0 150 -830 0 -830 0 0 -150z"/>
</g>
</svg>
