<svg width="34" height="35" viewBox="0 0 34 35" fill="none" xmlns="http://www.w3.org/2000/svg">
<path d="M4.85714 0C2.17813 0 0 2.24219 0 5V30C0 32.7578 2.17813 35 4.85714 35H29.1429C31.8219 35 34 32.7578 34 30V5C34 2.24219 31.8219 0 29.1429 0H4.85714ZM25.5759 13.8281L15.8616 23.8281C15.1482 24.5625 13.9946 24.5625 13.2888 23.8281L8.4317 18.8281C7.7183 18.0938 7.7183 16.9062 8.4317 16.1797C9.14509 15.4531 10.2987 15.4453 11.0045 16.1797L14.5714 19.8516L22.9955 11.1719C23.7089 10.4375 24.8625 10.4375 25.5683 11.1719C26.2741 11.9062 26.2817 13.0937 25.5683 13.8203L25.5759 13.8281Z" fill="#212C56"/>
</svg>
