<svg width="34" height="35" viewBox="0 0 34 35" fill="none" xmlns="http://www.w3.org/2000/svg">
<path d="M16.0741 24.0469C15.2469 24.8984 13.896 24.8984 13.0687 24.0469L8.21161 19.0469C7.3821 18.1953 7.3821 16.8047 8.21161 15.9531C9.03884 15.1016 10.3897 15.1016 11.217 15.9531L14.5714 19.4062L22.783 10.9531C23.6103 10.1016 24.9612 10.1016 25.7884 10.9531C26.6156 11.8047 26.6156 13.1953 25.7884 14.0469L16.0741 24.0469ZM0 5C0 2.23828 2.17433 0 4.85714 0H29.1429C31.8219 0 34 2.23828 34 5V30C34 32.7578 31.8219 35 29.1429 35H4.85714C2.17433 35 0 32.7578 0 30V5ZM3.64286 5V30C3.64286 30.6875 4.18625 31.25 4.85714 31.25H29.1429C29.8107 31.25 30.3571 30.6875 30.3571 30V5C30.3571 4.30937 29.8107 3.75 29.1429 3.75H4.85714C4.18625 3.75 3.64286 4.30937 3.64286 5Z" fill="#212C56"/>
</svg>
