<svg id="Grupo_6" data-name="Grupo 6" xmlns="http://www.w3.org/2000/svg" width="541.304" height="211.035" viewBox="0 0 541.304 211.035">
  <g id="Grupo_5" data-name="Grupo 5">
    <rect id="Retângulo_2" data-name="Retângulo 2" width="541.304" height="85.196" transform="translate(0 125.839)" fill="#fff"/>
    <g id="Grupo_2" data-name="Grupo 2" transform="translate(9.301)">
      <g id="Grupo_1" data-name="Grupo 1">
        <path id="Caminho_1" data-name="Caminho 1" d="M224.926,565.2l11.916-78.96h24.307V597.451H244.626V517.7l-12.074,79.754H216.028L203,518.808v78.643H187.749V486.239h24.308Z" transform="translate(-187.749 -484.968)" fill="#fff"/>
        <path id="Caminho_2" data-name="Caminho 2" d="M301.517,533.107h23.99v15.888h-23.99v32.569H331.7v15.888H284.041V486.239H331.7v15.888H301.517Z" transform="translate(-197.93 -484.968)" fill="#fff"/>
        <path id="Caminho_3" data-name="Caminho 3" d="M372.615,484.818c17,0,25.737,10.168,25.737,27.962v3.5H381.829v-4.608c0-7.944-3.177-10.962-8.738-10.962s-8.738,3.018-8.738,10.962c0,22.878,34.157,27.168,34.157,58.942,0,17.793-8.9,27.962-26.055,27.962S346.4,588.4,346.4,570.61v-6.832h16.523v7.945c0,7.944,3.5,10.8,9.056,10.8s9.055-2.859,9.055-10.8c0-22.878-34.157-27.168-34.157-58.942C346.877,494.986,355.615,484.818,372.615,484.818Z" transform="translate(-204.523 -484.818)" fill="#fff"/>
        <path id="Caminho_4" data-name="Caminho 4" d="M410.181,486.239H464.2v15.888h-18.27v95.324H428.451V502.127h-18.27Z" transform="translate(-211.267 -484.968)" fill="#fff"/>
        <path id="Caminho_5" data-name="Caminho 5" d="M515.653,597.451c-.953-2.861-1.589-4.608-1.589-13.664V566.311c0-10.327-3.495-14.139-11.439-14.139h-6.037v45.279H479.112V486.239h26.373c18.112,0,25.9,8.42,25.9,25.579v8.739c0,11.439-3.654,18.906-11.439,22.56,8.738,3.654,11.6,12.074,11.6,23.672v17.158c0,5.4.159,9.373,1.906,13.5Zm-19.065-95.324v34.157h6.831c6.514,0,10.486-2.859,10.486-11.756V513.565c0-7.943-2.7-11.439-8.9-11.439Z" transform="translate(-218.555 -484.968)" fill="#fff"/>
        <path id="Caminho_6" data-name="Caminho 6" d="M568.008,533.107H592v15.888h-23.99v32.569h30.186v15.888H550.532V486.239h47.662v15.888H568.008Z" transform="translate(-226.107 -484.968)" fill="#fff"/>
        <path id="Caminho_7" data-name="Caminho 7" d="M643.449,486.239h27.645c17.476,0,26.055,9.692,26.055,27.485v56.241c0,17.794-8.58,27.485-26.055,27.485H643.449Zm17.477,15.888v79.437h9.849c5.561,0,8.9-2.86,8.9-10.8V512.93c0-7.944-3.337-10.8-8.9-10.8Z" transform="translate(-235.931 -484.968)" fill="#fff"/>
        <path id="Caminho_8" data-name="Caminho 8" d="M714.335,512.78c0-17.794,9.374-27.962,26.532-27.962S767.4,494.986,767.4,512.78v57.83c0,17.793-9.374,27.962-26.532,27.962S714.335,588.4,714.335,570.61Zm17.477,58.942c0,7.944,3.5,10.962,9.055,10.962s9.056-3.018,9.056-10.962V511.667c0-7.944-3.495-10.962-9.056-10.962s-9.055,3.018-9.055,10.962Z" transform="translate(-243.426 -484.818)" fill="#fff"/>
      </g>
    </g>
    <g id="Grupo_4" data-name="Grupo 4" transform="translate(6.975 133.678)">
      <g id="Grupo_3" data-name="Grupo 3">
        <path id="Caminho_9" data-name="Caminho 9" d="M185.148,635.16H217.8v9.6H206.756v57.622H196.192V644.763H185.148Z" transform="translate(-185.148 -634.392)" fill="#192451"/>
        <path id="Caminho_10" data-name="Caminho 10" d="M237.381,663.491h14.5v9.6h-14.5v19.687h18.247v9.6H226.816V635.16h28.812v9.6H237.381Z" transform="translate(-189.554 -634.392)" fill="#192451"/>
        <path id="Caminho_11" data-name="Caminho 11" d="M296.872,677.229v8.931c0,10.756-5.378,16.9-15.75,16.9s-15.75-6.146-15.75-16.9V651.2c0-10.756,5.378-16.9,15.75-16.9s15.75,6.146,15.75,16.9v6.53h-9.988v-7.2c0-4.8-2.113-6.627-5.474-6.627s-5.474,1.824-5.474,6.627v36.3c0,4.8,2.112,6.531,5.474,6.531s5.474-1.729,5.474-6.531v-9.6Z" transform="translate(-193.63 -634.301)" fill="#192451"/>
        <path id="Caminho_12" data-name="Caminho 12" d="M307.792,635.16h10.564v67.226H307.792Z" transform="translate(-198.115 -634.392)" fill="#192451"/>
        <path id="Caminho_13" data-name="Caminho 13" d="M328.2,635.16h16.711c10.564,0,15.75,5.858,15.75,16.614v34c0,10.756-5.186,16.615-15.75,16.615H328.2Zm10.565,9.6v48.019h5.954c3.362,0,5.378-1.729,5.378-6.531V651.294c0-4.8-2.017-6.531-5.378-6.531Z" transform="translate(-200.273 -634.392)" fill="#192451"/>
        <path id="Caminho_14" data-name="Caminho 14" d="M371.045,651.2c0-10.756,5.666-16.9,16.039-16.9s16.038,6.146,16.038,16.9V686.16c0,10.756-5.666,16.9-16.038,16.9s-16.039-6.146-16.039-16.9Zm10.564,35.629c0,4.8,2.113,6.626,5.475,6.626s5.474-1.825,5.474-6.626v-36.3c0-4.8-2.113-6.627-5.474-6.627s-5.475,1.824-5.475,6.627Z" transform="translate(-204.803 -634.301)" fill="#192451"/>
        <path id="Caminho_15" data-name="Caminho 15" d="M431.187,635.16H447.9c10.564,0,15.749,5.858,15.749,16.614v34c0,10.756-5.185,16.615-15.749,16.615H431.187Zm10.564,9.6v48.019h5.955c3.361,0,5.377-1.729,5.377-6.531V651.294c0-4.8-2.017-6.531-5.377-6.531Z" transform="translate(-211.162 -634.392)" fill="#192451"/>
        <path id="Caminho_16" data-name="Caminho 16" d="M485.568,663.491h14.5v9.6h-14.5v19.687h18.247v9.6H475V635.16h28.811v9.6H485.568Z" transform="translate(-215.795 -634.392)" fill="#192451"/>
        <path id="Caminho_17" data-name="Caminho 17" d="M562.479,651.774v8.741c0,10.755-5.186,16.614-15.75,16.614h-4.994v25.258H531.172V635.16H546.73C557.294,635.16,562.479,641.018,562.479,651.774Zm-20.743-7.01v22.761h4.994c3.362,0,5.186-1.536,5.186-6.339V651.1c0-4.8-1.824-6.339-5.186-6.339Z" transform="translate(-221.734 -634.392)" fill="#192451"/>
        <path id="Caminho_18" data-name="Caminho 18" d="M604.125,702.386H593.465l-1.824-12.2H578.675l-1.824,12.2h-9.7l10.756-67.226h15.462Zm-24.1-21.32H590.2l-5.09-34Z" transform="translate(-225.538 -634.392)" fill="#192451"/>
        <path id="Caminho_19" data-name="Caminho 19" d="M636.064,702.386c-.576-1.729-.96-2.785-.96-8.259V683.562c0-6.242-2.113-8.546-6.915-8.546H624.54v27.37H613.976V635.16h15.941c10.948,0,15.654,5.09,15.654,15.462V655.9c0,6.915-2.209,11.429-6.914,13.638,5.282,2.209,7.011,7.3,7.011,14.309v10.373c0,3.265.1,5.666,1.152,8.163ZM624.54,644.763v20.648h4.129c3.938,0,6.339-1.728,6.339-7.107v-6.627c0-4.8-1.633-6.914-5.378-6.914Z" transform="translate(-230.489 -634.392)" fill="#192451"/>
        <path id="Caminho_20" data-name="Caminho 20" d="M667.712,663.491h14.5v9.6h-14.5v19.687H685.96v9.6H657.148V635.16H685.96v9.6H667.712Z" transform="translate(-235.053 -634.392)" fill="#192451"/>
        <path id="Caminho_21" data-name="Caminho 21" d="M696.67,635.16h16.71c10.564,0,15.75,5.858,15.75,16.614v34c0,10.756-5.186,16.615-15.75,16.615H696.67Zm10.564,9.6v48.019h5.954c3.362,0,5.378-1.729,5.378-6.531V651.294c0-4.8-2.017-6.531-5.378-6.531Z" transform="translate(-239.232 -634.392)" fill="#192451"/>
        <path id="Caminho_22" data-name="Caminho 22" d="M751.05,663.491h14.5v9.6h-14.5v19.687H769.3v9.6H740.486V635.16H769.3v9.6H751.05Z" transform="translate(-243.865 -634.392)" fill="#192451"/>
      </g>
    </g>
  </g>
</svg>
