<svg id="Grupo_18" data-name="Grupo 18" xmlns="http://www.w3.org/2000/svg" xmlns:xlink="http://www.w3.org/1999/xlink" width="392.412" height="85.614" viewBox="0 0 392.412 85.614">
  <defs>
    <clipPath id="clip-path">
      <path id="SVGID" d="M594.848,408.533c-2.043-.676-4.087-1.353-5.447-1.984a7.849,7.849,0,0,1-2.387-1.574c-.35-.356-.373-.479-.322-.564s.174-.13.6-.124a9.728,9.728,0,0,1,2.3.356c1.14.293,2.687.824,4.206,1.3s3.009.909,4.555,1.332,3.149.842,4.2,1.084a19.766,19.766,0,0,0,2.042.379,20.326,20.326,0,0,1,.3-2.068,9.833,9.833,0,0,1,.954-2.753,14.576,14.576,0,0,1,2.28-2.975,22.809,22.809,0,0,1,6.688-4.955,11.061,11.061,0,0,1,2.22-.853c.575-.146,1.06-.215,1.376.051a1.906,1.906,0,0,1,.327,1.744,16.1,16.1,0,0,1-1.011,3.178,23.764,23.764,0,0,1-1.7,3.489,34.736,34.736,0,0,1-2.557,3.658,27.894,27.894,0,0,1-2.106,2.33v.1a16.655,16.655,0,0,0,2.569.3c1.394.079,3.595.123,5.621.152s3.878.038,6.055.037,4.676-.02,7.176-.037a9.722,9.722,0,0,1,.138-2.593,31.028,31.028,0,0,1,1.313-4.8,23.2,23.2,0,0,1,2.286-4.719,22.681,22.681,0,0,1,2.754-3.391A7.249,7.249,0,0,1,641.276,393a.989.989,0,0,1,1.23.243,3.074,3.074,0,0,1,.5,1.823,14.487,14.487,0,0,1-.264,3.618,20.269,20.269,0,0,1-1.366,4.127,19.823,19.823,0,0,1-2.089,3.646c-.851,1.18-1.9,2.376-2.951,3.573a22.769,22.769,0,0,0,3.883-.345c2.371-.343,6.356-1.033,9.375-1.682s5.075-1.258,7.13-1.868a6.623,6.623,0,0,1-.068-2.427,15.443,15.443,0,0,1,4.3-8.9,27.046,27.046,0,0,1,3.2-2.925,4.1,4.1,0,0,1,1.763-.977c.411-.051.739.119.817.848a13.116,13.116,0,0,1-.434,3.573,33.01,33.01,0,0,1-1.423,4.781,19.576,19.576,0,0,1-1.755,3.313c1.388-.6,2.778-1.2,4.262-1.846s3.065-1.349,4.069-1.863a7.324,7.324,0,0,0,1.666-1.055c.232-.215.265-.316.287-.441s.035-.27.356-.558a5.958,5.958,0,0,1,1.755-1.022,9.4,9.4,0,0,1,3.183-.519,20.6,20.6,0,0,1,4.8.435,9.6,9.6,0,0,1,3.4,1.433c.632.481.666.841.457,1.175a3.79,3.79,0,0,1-1.411,1.044,18.259,18.259,0,0,1-2.9,1.276,13.077,13.077,0,0,1-3.24.632,9.043,9.043,0,0,1-2.686-.249,14.24,14.24,0,0,1-2.377-.768,3.613,3.613,0,0,1-.942-.586c-.141-.114-.2-.124-1.231.377s-3.041,1.519-5.068,2.461-4.071,1.812-6.063,2.694-3.934,1.772-5.684,2.353-3.308.852-4.092,1.051-.8.321-.294.478a17.116,17.116,0,0,1,2.919,1,22.326,22.326,0,0,1,4.572,2.919,17.908,17.908,0,0,1,3.177,3.511,13.617,13.617,0,0,1,1.722,3.082,3.467,3.467,0,0,1,.225,2.116c-.158.413-.53.446-1.688.141a40.423,40.423,0,0,1-5-1.755,33.031,33.031,0,0,1-9.268-5.8,22.57,22.57,0,0,1-2.359-2.247,5.551,5.551,0,0,1-.892-1.377c-.125-.282-.125-.36-.2-.406s-.221-.055-1.564.141-3.884.6-6.186.875-4.369.405-6,.461-2.812.034-4,.012a28.245,28.245,0,0,1,3.391,2.822,22.028,22.028,0,0,1,2.948,3.8,16.263,16.263,0,0,1,1.784,3.783,8.739,8.739,0,0,1,.326,2.686,5.278,5.278,0,0,1-.187,1.681,1.513,1.513,0,0,1-.9,1.017c-.445.148-1.044.034-2.172-.643a32.366,32.366,0,0,1-4.155-3.122,26.17,26.17,0,0,1-3.347-3.522,30.326,30.326,0,0,1-2.27-3.354A29.6,29.6,0,0,1,620.825,415a12.4,12.4,0,0,1-.671-1.779c-.107-.394-.107-.575-.153-.664s-.137-.09-1.011-.137-2.534-.135-4.651-.275-4.691-.334-7.164-.718-4.842-.959-6.034-1.214-1.2-.185-.727.306a27.247,27.247,0,0,1,2.207,2.415,11.906,11.906,0,0,1,1.789,3.342,15.874,15.874,0,0,1,.813,3.974,22.569,22.569,0,0,1-.04,3.9,3.223,3.223,0,0,1-.6,1.941c-.328.328-.814.4-1.542-.015a14.384,14.384,0,0,1-3.065-2.835,45.024,45.024,0,0,1-4.2-5.425,12.423,12.423,0,0,1-1.722-4.125,7.214,7.214,0,0,1-.192-2.88,7.419,7.419,0,0,1,.994-2.278" transform="translate(-586.672 -390.9)" fill="#d8b770" clip-rule="evenodd"/>
    </clipPath>
    <clipPath id="clip-path-2">
      <path id="SVGID-2" data-name="SVGID" d="M353.232,407.221a57.756,57.756,0,0,1,5.446,1.983,7.876,7.876,0,0,1,2.389,1.575c.35.354.372.478.321.564s-.175.129-.6.124a9.787,9.787,0,0,1-2.3-.356c-1.139-.294-2.686-.824-4.2-1.3s-3.008-.909-4.555-1.332-3.15-.841-4.2-1.085a19.382,19.382,0,0,0-2.043-.377,20.264,20.264,0,0,1-.3,2.066,9.9,9.9,0,0,1-.954,2.755,14.634,14.634,0,0,1-2.28,2.974,22.766,22.766,0,0,1-6.689,4.955,11.051,11.051,0,0,1-2.218.853c-.577.147-1.061.215-1.377-.051s-.463-.864-.328-1.744a16.141,16.141,0,0,1,1.01-3.178,23.9,23.9,0,0,1,1.7-3.488A35.151,35.151,0,0,1,334.6,408.5a28.366,28.366,0,0,1,2.106-2.331v-.1a16.411,16.411,0,0,0-2.568-.3c-1.394-.08-3.6-.124-5.622-.152s-3.878-.04-6.053-.037-4.676.019-7.177.037a9.693,9.693,0,0,1-.139,2.593,30.877,30.877,0,0,1-1.313,4.8,23.16,23.16,0,0,1-2.285,4.72,22.8,22.8,0,0,1-2.755,3.392,7.227,7.227,0,0,1-1.987,1.643.989.989,0,0,1-1.231-.242,3.077,3.077,0,0,1-.5-1.823,14.544,14.544,0,0,1,.266-3.618,20.152,20.152,0,0,1,1.366-4.126,19.9,19.9,0,0,1,2.088-3.647c.853-1.18,1.9-2.376,2.953-3.573a22.813,22.813,0,0,0-3.884.344c-2.371.344-6.356,1.033-9.376,1.682s-5.075,1.259-7.129,1.868a6.676,6.676,0,0,1,.066,2.428,15.414,15.414,0,0,1-4.3,8.9,26.933,26.933,0,0,1-3.2,2.923,4.09,4.09,0,0,1-1.761.977c-.412.05-.74-.118-.819-.847a13.053,13.053,0,0,1,.435-3.573,32.818,32.818,0,0,1,1.423-4.781,19.722,19.722,0,0,1,1.755-3.314c-1.388.6-2.776,1.2-4.26,1.847s-3.065,1.349-4.071,1.862a7.356,7.356,0,0,0-1.665,1.056c-.231.215-.266.317-.287.441s-.034.271-.356.558a5.984,5.984,0,0,1-1.756,1.022,9.386,9.386,0,0,1-3.183.52,20.753,20.753,0,0,1-4.8-.435,9.636,9.636,0,0,1-3.4-1.434c-.631-.48-.665-.842-.457-1.175a3.826,3.826,0,0,1,1.411-1.044,18.339,18.339,0,0,1,2.9-1.274,13.037,13.037,0,0,1,3.241-.632,9.071,9.071,0,0,1,2.686.248,14.184,14.184,0,0,1,2.377.767,3.655,3.655,0,0,1,.943.587c.139.114.2.125,1.23-.377s3.043-1.518,5.07-2.462,4.069-1.811,6.061-2.692,3.934-1.772,5.684-2.353,3.308-.853,4.092-1.051.8-.322.294-.48a17.162,17.162,0,0,1-2.919-1,22.434,22.434,0,0,1-4.572-2.919,17.912,17.912,0,0,1-3.178-3.511,13.6,13.6,0,0,1-1.722-3.083,3.49,3.49,0,0,1-.225-2.117c.159-.412.531-.446,1.688-.14a40.4,40.4,0,0,1,5,1.755,32.889,32.889,0,0,1,9.268,5.8,22.794,22.794,0,0,1,2.359,2.245,5.573,5.573,0,0,1,.892,1.377c.125.283.125.362.2.407s.221.056,1.564-.141,3.884-.6,6.187-.875,4.369-.406,6-.463,2.811-.033,4-.011a28.133,28.133,0,0,1-3.393-2.823,21.936,21.936,0,0,1-2.946-3.8,16.2,16.2,0,0,1-1.784-3.782,8.8,8.8,0,0,1-.328-2.686,5.34,5.34,0,0,1,.187-1.682,1.516,1.516,0,0,1,.9-1.015c.444-.148,1.043-.035,2.173.643a32.157,32.157,0,0,1,4.154,3.121,26.172,26.172,0,0,1,3.347,3.522A30.514,30.514,0,0,1,325.8,398a29.633,29.633,0,0,1,1.451,2.756,12.482,12.482,0,0,1,.672,1.778c.107.394.107.575.152.665s.136.09,1.01.135,2.533.135,4.65.277,4.691.333,7.164.716,4.842.96,6.034,1.214,1.2.187.729-.3a27.14,27.14,0,0,1-2.207-2.416,11.88,11.88,0,0,1-1.789-3.341,15.9,15.9,0,0,1-.813-3.974,22.58,22.58,0,0,1,.039-3.9,3.216,3.216,0,0,1,.6-1.942c.326-.327.813-.4,1.54.017a14.316,14.316,0,0,1,3.066,2.833,45.433,45.433,0,0,1,4.206,5.425,12.448,12.448,0,0,1,1.721,4.126,7.2,7.2,0,0,1,.192,2.88,7.4,7.4,0,0,1-.993,2.279" transform="translate(-260.596 -387.303)" fill="#d8b770" clip-rule="evenodd"/>
    </clipPath>
    <clipPath id="clip-path-3">
      <path id="SVGID-3" data-name="SVGID" d="M514,370.506a33.372,33.372,0,0,1-4.429,3.092c-3.819,2.342-3.9,11.524-2.955,15.316,1.51,6.021,6.11,9.933,8.566,15.316a33.488,33.488,0,0,1,1.476,3.389,15.046,15.046,0,0,1,.3,6.774c-.142.845-1.925,6.331-2.806,5.45a5.017,5.017,0,0,0-.59-1.621c-9.136-18.2-45.134-17.558-33.229-34.168,6.233-10.363,18.155-26.735,31.6-20.028,1.061.755,4.408,3.757,2.067,6.48" transform="translate(-477.937 -362.46)" fill="#d8b770"/>
    </clipPath>
    <clipPath id="clip-path-4">
      <path id="SVGID-4" data-name="SVGID" d="M471.054,395.123c2.417,9.674,26.254,12.348,34.706,26.362,3.155,6.322,1.637,9.518,6.5,16.789.664.829,1.868,2.892,2.363,3.387,1.641,1.09,7.018,1.788,8.565,2.946A5.548,5.548,0,0,1,525.252,448c0,.442.147.589-.442.589-3.2,0-9.876.647-12.259-.148-.081-.041-1.935-1.488-2.068-1.62a32.343,32.343,0,0,1-5.021-5.006,25.039,25.039,0,0,1-4.135-4.714c-.59-1.031-1.328-2.062-1.919-3.24-.3-.588-.591-1.031-.886-1.62a2.643,2.643,0,0,0-.886-1.325c-.132-.066-1.773.147-2.215.147-12.347,0-18.212-8.47-31.9-11.193,2.823-1.408,5.139-6.352,5.907-9.426-15.159,12.953-8.707,8.253-23.777,15.759-2.706,2.026-4.44,2.183-6.941,5.3-.884.884-1.772,1.914-2.657,2.8-1.382,2.067-2.3,6.856-2.659,7.217,1.336,0,4.083.1,5.021,1.03a4.781,4.781,0,0,1,1.772,3.24c.045.364.23,1.662-.055,1.939s-10.384-.137-11.612-1.349c-.147-.442-.147-.884-.3-1.326-.147-.884-.3-1.62-.442-2.356a70.957,70.957,0,0,1-1.214-12.352c.017-.047.037-.095.058-.141.926-1.975,8.252-5.629,8.393-7.537.041-.582,0-1.183,0-1.767V410.312c0-1.086.511-3.486-.3-4.29-.738-.736-1.624-.884-2.363-1.472-4.211-2.627-6.936-8.264-5.169-13.107a15.786,15.786,0,0,1,1.182-2.8c1.989-2.978,8.984-3.977,12.257-3.977,3.674,0,22.611,1,18.459-5.891a4.615,4.615,0,0,0-1.624-1.325,18.5,18.5,0,0,0-2.954-.884,11.9,11.9,0,0,1-8.27,1.915,9.778,9.778,0,0,1-2.215-.737c-1.034-.442-2.511-1.326-2.363-2.651,1.24,0,2.608.443,3.839.443,0-.585-1.606-3.221.148-4.271a4.192,4.192,0,0,0,1.331,1.472,7.776,7.776,0,0,0,1.476.884s-.33-.84-.513-1.461a3.923,3.923,0,0,1-.247-1.291,4.4,4.4,0,0,1,.022-1.224c.3,0,.444.443.737.738.968,1.438,4.72,2.449,6.351,3.533.886.3,1.921.589,2.805.884,9.973,3.554,6.333,13.256-3.248,13.256-3.321,0-6.606.293-10.043.293-3.218,0-11.664,2.06-7.532,7.218a2.293,2.293,0,0,0,1.181.884c1.022.255,4.312-1.62,6.795-1.62,3.839-.148,7.827,0,11.666,0,2,0,13.408.763,14.474.294Z" transform="translate(-426.57 -369.644)" fill="#d8b770"/>
    </clipPath>
    <clipPath id="clip-path-5">
      <path id="SVGID-5" data-name="SVGID" d="M518.586,382.284a2,2,0,0,1-1.943-.658,1.636,1.636,0,0,1-.123-2.348,1.589,1.589,0,0,1,1.238-.426,2.379,2.379,0,0,1,1.773.957,1.7,1.7,0,0,1-.944,2.475m13.272-2.267c-1.376-2.288-6.436-2.546-9.3-3.976-1.72-.572-2.161-2.752-5.908-.884-4.95,3.708-4.568,10.483-2.068,15.465.957,1.909,2.325,3.239,4.578,3.239,2.373,0,4.775,3.928,7.089,1.621a8.852,8.852,0,0,0,1.33-2.21c.738-1.766,1.624-3.388,2.509-5.154.59-1.179,1.181-2.21,1.772-3.388C532.351,383.266,532.95,381.376,531.858,380.017Z" transform="translate(-512.783 -374.415)" fill="#d8b770"/>
    </clipPath>
  </defs>
  <g id="Grupo_8" data-name="Grupo 8" transform="translate(291.6 25.433)">
    <path id="SVGID-9" data-name="SVGID" d="M594.848,408.533c-2.043-.676-4.087-1.353-5.447-1.984a7.849,7.849,0,0,1-2.387-1.574c-.35-.356-.373-.479-.322-.564s.174-.13.6-.124a9.728,9.728,0,0,1,2.3.356c1.14.293,2.687.824,4.206,1.3s3.009.909,4.555,1.332,3.149.842,4.2,1.084a19.766,19.766,0,0,0,2.042.379,20.326,20.326,0,0,1,.3-2.068,9.833,9.833,0,0,1,.954-2.753,14.576,14.576,0,0,1,2.28-2.975,22.809,22.809,0,0,1,6.688-4.955,11.061,11.061,0,0,1,2.22-.853c.575-.146,1.06-.215,1.376.051a1.906,1.906,0,0,1,.327,1.744,16.1,16.1,0,0,1-1.011,3.178,23.764,23.764,0,0,1-1.7,3.489,34.736,34.736,0,0,1-2.557,3.658,27.894,27.894,0,0,1-2.106,2.33v.1a16.655,16.655,0,0,0,2.569.3c1.394.079,3.595.123,5.621.152s3.878.038,6.055.037,4.676-.02,7.176-.037a9.722,9.722,0,0,1,.138-2.593,31.028,31.028,0,0,1,1.313-4.8,23.2,23.2,0,0,1,2.286-4.719,22.681,22.681,0,0,1,2.754-3.391A7.249,7.249,0,0,1,641.276,393a.989.989,0,0,1,1.23.243,3.074,3.074,0,0,1,.5,1.823,14.487,14.487,0,0,1-.264,3.618,20.269,20.269,0,0,1-1.366,4.127,19.823,19.823,0,0,1-2.089,3.646c-.851,1.18-1.9,2.376-2.951,3.573a22.769,22.769,0,0,0,3.883-.345c2.371-.343,6.356-1.033,9.375-1.682s5.075-1.258,7.13-1.868a6.623,6.623,0,0,1-.068-2.427,15.443,15.443,0,0,1,4.3-8.9,27.046,27.046,0,0,1,3.2-2.925,4.1,4.1,0,0,1,1.763-.977c.411-.051.739.119.817.848a13.116,13.116,0,0,1-.434,3.573,33.01,33.01,0,0,1-1.423,4.781,19.576,19.576,0,0,1-1.755,3.313c1.388-.6,2.778-1.2,4.262-1.846s3.065-1.349,4.069-1.863a7.324,7.324,0,0,0,1.666-1.055c.232-.215.265-.316.287-.441s.035-.27.356-.558a5.958,5.958,0,0,1,1.755-1.022,9.4,9.4,0,0,1,3.183-.519,20.6,20.6,0,0,1,4.8.435,9.6,9.6,0,0,1,3.4,1.433c.632.481.666.841.457,1.175a3.79,3.79,0,0,1-1.411,1.044,18.259,18.259,0,0,1-2.9,1.276,13.077,13.077,0,0,1-3.24.632,9.043,9.043,0,0,1-2.686-.249,14.24,14.24,0,0,1-2.377-.768,3.613,3.613,0,0,1-.942-.586c-.141-.114-.2-.124-1.231.377s-3.041,1.519-5.068,2.461-4.071,1.812-6.063,2.694-3.934,1.772-5.684,2.353-3.308.852-4.092,1.051-.8.321-.294.478a17.116,17.116,0,0,1,2.919,1,22.326,22.326,0,0,1,4.572,2.919,17.908,17.908,0,0,1,3.177,3.511,13.617,13.617,0,0,1,1.722,3.082,3.467,3.467,0,0,1,.225,2.116c-.158.413-.53.446-1.688.141a40.423,40.423,0,0,1-5-1.755,33.031,33.031,0,0,1-9.268-5.8,22.57,22.57,0,0,1-2.359-2.247,5.551,5.551,0,0,1-.892-1.377c-.125-.282-.125-.36-.2-.406s-.221-.055-1.564.141-3.884.6-6.186.875-4.369.405-6,.461-2.812.034-4,.012a28.245,28.245,0,0,1,3.391,2.822,22.028,22.028,0,0,1,2.948,3.8,16.263,16.263,0,0,1,1.784,3.783,8.739,8.739,0,0,1,.326,2.686,5.278,5.278,0,0,1-.187,1.681,1.513,1.513,0,0,1-.9,1.017c-.445.148-1.044.034-2.172-.643a32.366,32.366,0,0,1-4.155-3.122,26.17,26.17,0,0,1-3.347-3.522,30.326,30.326,0,0,1-2.27-3.354A29.6,29.6,0,0,1,620.825,415a12.4,12.4,0,0,1-.671-1.779c-.107-.394-.107-.575-.153-.664s-.137-.09-1.011-.137-2.534-.135-4.651-.275-4.691-.334-7.164-.718-4.842-.959-6.034-1.214-1.2-.185-.727.306a27.247,27.247,0,0,1,2.207,2.415,11.906,11.906,0,0,1,1.789,3.342,15.874,15.874,0,0,1,.813,3.974,22.569,22.569,0,0,1-.04,3.9,3.223,3.223,0,0,1-.6,1.941c-.328.328-.814.4-1.542-.015a14.384,14.384,0,0,1-3.065-2.835,45.024,45.024,0,0,1-4.2-5.425,12.423,12.423,0,0,1-1.722-4.125,7.214,7.214,0,0,1-.192-2.88,7.419,7.419,0,0,1,.994-2.278" transform="translate(-586.672 -390.9)" fill="#d8b770" fill-rule="evenodd"/>
    <g id="Grupo_7" data-name="Grupo 7" clip-path="url(#clip-path)">
      <rect id="Retângulo_3" data-name="Retângulo 3" width="100.937" height="37.684" transform="translate(-0.031 -0.042)" fill="#d8b770"/>
    </g>
  </g>
  <g id="Grupo_10" data-name="Grupo 10" transform="translate(0 22.216)">
    <path id="SVGID-10" data-name="SVGID" d="M353.232,407.221a57.756,57.756,0,0,1,5.446,1.983,7.876,7.876,0,0,1,2.389,1.575c.35.354.372.478.321.564s-.175.129-.6.124a9.787,9.787,0,0,1-2.3-.356c-1.139-.294-2.686-.824-4.2-1.3s-3.008-.909-4.555-1.332-3.15-.841-4.2-1.085a19.382,19.382,0,0,0-2.043-.377,20.264,20.264,0,0,1-.3,2.066,9.9,9.9,0,0,1-.954,2.755,14.634,14.634,0,0,1-2.28,2.974,22.766,22.766,0,0,1-6.689,4.955,11.051,11.051,0,0,1-2.218.853c-.577.147-1.061.215-1.377-.051s-.463-.864-.328-1.744a16.141,16.141,0,0,1,1.01-3.178,23.9,23.9,0,0,1,1.7-3.488A35.151,35.151,0,0,1,334.6,408.5a28.366,28.366,0,0,1,2.106-2.331v-.1a16.411,16.411,0,0,0-2.568-.3c-1.394-.08-3.6-.124-5.622-.152s-3.878-.04-6.053-.037-4.676.019-7.177.037a9.693,9.693,0,0,1-.139,2.593,30.877,30.877,0,0,1-1.313,4.8,23.16,23.16,0,0,1-2.285,4.72,22.8,22.8,0,0,1-2.755,3.392,7.227,7.227,0,0,1-1.987,1.643.989.989,0,0,1-1.231-.242,3.077,3.077,0,0,1-.5-1.823,14.544,14.544,0,0,1,.266-3.618,20.152,20.152,0,0,1,1.366-4.126,19.9,19.9,0,0,1,2.088-3.647c.853-1.18,1.9-2.376,2.953-3.573a22.813,22.813,0,0,0-3.884.344c-2.371.344-6.356,1.033-9.376,1.682s-5.075,1.259-7.129,1.868a6.676,6.676,0,0,1,.066,2.428,15.414,15.414,0,0,1-4.3,8.9,26.933,26.933,0,0,1-3.2,2.923,4.09,4.09,0,0,1-1.761.977c-.412.05-.74-.118-.819-.847a13.053,13.053,0,0,1,.435-3.573,32.818,32.818,0,0,1,1.423-4.781,19.722,19.722,0,0,1,1.755-3.314c-1.388.6-2.776,1.2-4.26,1.847s-3.065,1.349-4.071,1.862a7.356,7.356,0,0,0-1.665,1.056c-.231.215-.266.317-.287.441s-.034.271-.356.558a5.984,5.984,0,0,1-1.756,1.022,9.386,9.386,0,0,1-3.183.52,20.753,20.753,0,0,1-4.8-.435,9.636,9.636,0,0,1-3.4-1.434c-.631-.48-.665-.842-.457-1.175a3.826,3.826,0,0,1,1.411-1.044,18.339,18.339,0,0,1,2.9-1.274,13.037,13.037,0,0,1,3.241-.632,9.071,9.071,0,0,1,2.686.248,14.184,14.184,0,0,1,2.377.767,3.655,3.655,0,0,1,.943.587c.139.114.2.125,1.23-.377s3.043-1.518,5.07-2.462,4.069-1.811,6.061-2.692,3.934-1.772,5.684-2.353,3.308-.853,4.092-1.051.8-.322.294-.48a17.162,17.162,0,0,1-2.919-1,22.434,22.434,0,0,1-4.572-2.919,17.912,17.912,0,0,1-3.178-3.511,13.6,13.6,0,0,1-1.722-3.083,3.49,3.49,0,0,1-.225-2.117c.159-.412.531-.446,1.688-.14a40.4,40.4,0,0,1,5,1.755,32.889,32.889,0,0,1,9.268,5.8,22.794,22.794,0,0,1,2.359,2.245,5.573,5.573,0,0,1,.892,1.377c.125.283.125.362.2.407s.221.056,1.564-.141,3.884-.6,6.187-.875,4.369-.406,6-.463,2.811-.033,4-.011a28.133,28.133,0,0,1-3.393-2.823,21.936,21.936,0,0,1-2.946-3.8,16.2,16.2,0,0,1-1.784-3.782,8.8,8.8,0,0,1-.328-2.686,5.34,5.34,0,0,1,.187-1.682,1.516,1.516,0,0,1,.9-1.015c.444-.148,1.043-.035,2.173.643a32.157,32.157,0,0,1,4.154,3.121,26.172,26.172,0,0,1,3.347,3.522A30.514,30.514,0,0,1,325.8,398a29.633,29.633,0,0,1,1.451,2.756,12.482,12.482,0,0,1,.672,1.778c.107.394.107.575.152.665s.136.09,1.01.135,2.533.135,4.65.277,4.691.333,7.164.716,4.842.96,6.034,1.214,1.2.187.729-.3a27.14,27.14,0,0,1-2.207-2.416,11.88,11.88,0,0,1-1.789-3.341,15.9,15.9,0,0,1-.813-3.974,22.58,22.58,0,0,1,.039-3.9,3.216,3.216,0,0,1,.6-1.942c.326-.327.813-.4,1.54.017a14.316,14.316,0,0,1,3.066,2.833,45.433,45.433,0,0,1,4.206,5.425,12.448,12.448,0,0,1,1.721,4.126,7.2,7.2,0,0,1,.192,2.88,7.4,7.4,0,0,1-.993,2.279" transform="translate(-260.596 -387.303)" fill="#d8b770" fill-rule="evenodd"/>
    <g id="Grupo_9" data-name="Grupo 9" clip-path="url(#clip-path-2)">
      <rect id="Retângulo_4" data-name="Retângulo 4" width="100.936" height="37.683" transform="translate(-0.093 -0.091)" fill="#d8b770"/>
    </g>
  </g>
  <g id="Grupo_17" data-name="Grupo 17" transform="translate(148.425)">
    <g id="Grupo_12" data-name="Grupo 12" transform="translate(45.936)">
      <path id="SVGID-11" data-name="SVGID" d="M514,370.506a33.372,33.372,0,0,1-4.429,3.092c-3.819,2.342-3.9,11.524-2.955,15.316,1.51,6.021,6.11,9.933,8.566,15.316a33.488,33.488,0,0,1,1.476,3.389,15.046,15.046,0,0,1,.3,6.774c-.142.845-1.925,6.331-2.806,5.45a5.017,5.017,0,0,0-.59-1.621c-9.136-18.2-45.134-17.558-33.229-34.168,6.233-10.363,18.155-26.735,31.6-20.028,1.061.755,4.408,3.757,2.067,6.48" transform="translate(-477.937 -362.46)" fill="#d8b770"/>
      <g id="Grupo_11" data-name="Grupo 11" clip-path="url(#clip-path-3)">
        <rect id="Retângulo_5" data-name="Retângulo 5" width="48.972" height="63.406" transform="translate(-9.516 -5.14)" fill="#d8b770"/>
      </g>
    </g>
    <g id="Grupo_14" data-name="Grupo 14" transform="translate(0 6.425)">
      <path id="SVGID-12" data-name="SVGID" d="M471.054,395.123c2.417,9.674,26.254,12.348,34.706,26.362,3.155,6.322,1.637,9.518,6.5,16.789.664.829,1.868,2.892,2.363,3.387,1.641,1.09,7.018,1.788,8.565,2.946A5.548,5.548,0,0,1,525.252,448c0,.442.147.589-.442.589-3.2,0-9.876.647-12.259-.148-.081-.041-1.935-1.488-2.068-1.62a32.343,32.343,0,0,1-5.021-5.006,25.039,25.039,0,0,1-4.135-4.714c-.59-1.031-1.328-2.062-1.919-3.24-.3-.588-.591-1.031-.886-1.62a2.643,2.643,0,0,0-.886-1.325c-.132-.066-1.773.147-2.215.147-12.347,0-18.212-8.47-31.9-11.193,2.823-1.408,5.139-6.352,5.907-9.426-15.159,12.953-8.707,8.253-23.777,15.759-2.706,2.026-4.44,2.183-6.941,5.3-.884.884-1.772,1.914-2.657,2.8-1.382,2.067-2.3,6.856-2.659,7.217,1.336,0,4.083.1,5.021,1.03a4.781,4.781,0,0,1,1.772,3.24c.045.364.23,1.662-.055,1.939s-10.384-.137-11.612-1.349c-.147-.442-.147-.884-.3-1.326-.147-.884-.3-1.62-.442-2.356a70.957,70.957,0,0,1-1.214-12.352c.017-.047.037-.095.058-.141.926-1.975,8.252-5.629,8.393-7.537.041-.582,0-1.183,0-1.767V410.312c0-1.086.511-3.486-.3-4.29-.738-.736-1.624-.884-2.363-1.472-4.211-2.627-6.936-8.264-5.169-13.107a15.786,15.786,0,0,1,1.182-2.8c1.989-2.978,8.984-3.977,12.257-3.977,3.674,0,22.611,1,18.459-5.891a4.615,4.615,0,0,0-1.624-1.325,18.5,18.5,0,0,0-2.954-.884,11.9,11.9,0,0,1-8.27,1.915,9.778,9.778,0,0,1-2.215-.737c-1.034-.442-2.511-1.326-2.363-2.651,1.24,0,2.608.443,3.839.443,0-.585-1.606-3.221.148-4.271a4.192,4.192,0,0,0,1.331,1.472,7.776,7.776,0,0,0,1.476.884s-.33-.84-.513-1.461a3.923,3.923,0,0,1-.247-1.291,4.4,4.4,0,0,1,.022-1.224c.3,0,.444.443.737.738.968,1.438,4.72,2.449,6.351,3.533.886.3,1.921.589,2.805.884,9.973,3.554,6.333,13.256-3.248,13.256-3.321,0-6.606.293-10.043.293-3.218,0-11.664,2.06-7.532,7.218a2.293,2.293,0,0,0,1.181.884c1.022.255,4.312-1.62,6.795-1.62,3.839-.148,7.827,0,11.666,0,2,0,13.408.763,14.474.294Z" transform="translate(-426.57 -369.644)" fill="#d8b770"/>
      <g id="Grupo_13" data-name="Grupo 13" clip-path="url(#clip-path-4)">
        <rect id="Retângulo_6" data-name="Retângulo 6" width="99.973" height="79.588" transform="translate(-1.144 0)" fill="#d8b770"/>
      </g>
    </g>
    <path id="Caminho_23" data-name="Caminho 23" d="M463.67,428.849c-.9.179-12.213,5.66-12.292,5.818-.086.086.59,4.5.59,5.007,0,1.079.146,2.014.146,3.093,0,.952,10.686,9.426,11.226,9.426.185.093,9.189,0,10.189,0,.443,0,.591.148.738-.442v-2.21c0-.907-1.816-1.195-2.51-1.471-3.99-1.592-7.219-3.084-11.076-5.008-1.095-.273,2.987-6.249,3.545-7.805.774-1.542.094-4.811-.555-6.408" transform="translate(-429.192 -369.479)" fill="#d8b770"/>
    <path id="Caminho_24" data-name="Caminho 24" d="M503.069,440.832c-.113.9-.757,2.643-.757,3.324,0,.532,4.741,4.534,5.379,5.213,1.685,1.679,3.345,3.405,5,5.062a.664.664,0,0,1,.211.4,42.248,42.248,0,0,1-6.423.285c-.3-.075-9.048-8.419-9.924-9.293-.077-.075-.3-.376-.454-.376,0-.942-.377-4.841-.228-5.592a52.39,52.39,0,0,1,7.2.983" transform="translate(-433.894 -370.642)" fill="#d8b770"/>
    <g id="Grupo_16" data-name="Grupo 16" transform="translate(77.098 10.692)">
      <path id="SVGID-13" data-name="SVGID" d="M518.586,382.284a2,2,0,0,1-1.943-.658,1.636,1.636,0,0,1-.123-2.348,1.589,1.589,0,0,1,1.238-.426,2.379,2.379,0,0,1,1.773.957,1.7,1.7,0,0,1-.944,2.475m13.272-2.267c-1.376-2.288-6.436-2.546-9.3-3.976-1.72-.572-2.161-2.752-5.908-.884-4.95,3.708-4.568,10.483-2.068,15.465.957,1.909,2.325,3.239,4.578,3.239,2.373,0,4.775,3.928,7.089,1.621a8.852,8.852,0,0,0,1.33-2.21c.738-1.766,1.624-3.388,2.509-5.154.59-1.179,1.181-2.21,1.772-3.388C532.351,383.266,532.95,381.376,531.858,380.017Z" transform="translate(-512.783 -374.415)" fill="#d8b770"/>
      <g id="Grupo_15" data-name="Grupo 15" clip-path="url(#clip-path-5)">
        <rect id="Retângulo_7" data-name="Retângulo 7" width="21.252" height="24.499" transform="translate(-1.086 -1.126)" fill="#d8b770"/>
      </g>
    </g>
  </g>
  <g id="Grupo_21" data-name="Grupo 21" transform="translate(148.425)">
    <g id="Grupo_12-2" data-name="Grupo 12" transform="translate(45.936)">
      <path id="SVGID-14" data-name="SVGID" d="M514,370.506a33.372,33.372,0,0,1-4.429,3.092c-3.819,2.342-3.9,11.524-2.955,15.316,1.51,6.021,6.11,9.933,8.566,15.316a33.488,33.488,0,0,1,1.476,3.389,15.046,15.046,0,0,1,.3,6.774c-.142.845-1.925,6.331-2.806,5.45a5.017,5.017,0,0,0-.59-1.621c-9.136-18.2-45.134-17.558-33.229-34.168,6.233-10.363,18.155-26.735,31.6-20.028,1.061.755,4.408,3.757,2.067,6.48" transform="translate(-477.937 -362.46)" fill="#d8b770"/>
      <g id="Grupo_11-2" data-name="Grupo 11" clip-path="url(#clip-path-3)">
        <rect id="Retângulo_5-2" data-name="Retângulo 5" width="48.972" height="63.406" transform="translate(-9.516 -5.14)" fill="#d8b770"/>
      </g>
    </g>
    <g id="Grupo_14-2" data-name="Grupo 14" transform="translate(0 6.425)">
      <path id="SVGID-15" data-name="SVGID" d="M471.054,395.123c2.417,9.674,26.254,12.348,34.706,26.362,3.155,6.322,1.637,9.518,6.5,16.789.664.829,1.868,2.892,2.363,3.387,1.641,1.09,7.018,1.788,8.565,2.946A5.548,5.548,0,0,1,525.252,448c0,.442.147.589-.442.589-3.2,0-9.876.647-12.259-.148-.081-.041-1.935-1.488-2.068-1.62a32.343,32.343,0,0,1-5.021-5.006,25.039,25.039,0,0,1-4.135-4.714c-.59-1.031-1.328-2.062-1.919-3.24-.3-.588-.591-1.031-.886-1.62a2.643,2.643,0,0,0-.886-1.325c-.132-.066-1.773.147-2.215.147-12.347,0-18.212-8.47-31.9-11.193,2.823-1.408,5.139-6.352,5.907-9.426-15.159,12.953-8.707,8.253-23.777,15.759-2.706,2.026-4.44,2.183-6.941,5.3-.884.884-1.772,1.914-2.657,2.8-1.382,2.067-2.3,6.856-2.659,7.217,1.336,0,4.083.1,5.021,1.03a4.781,4.781,0,0,1,1.772,3.24c.045.364.23,1.662-.055,1.939s-10.384-.137-11.612-1.349c-.147-.442-.147-.884-.3-1.326-.147-.884-.3-1.62-.442-2.356a70.957,70.957,0,0,1-1.214-12.352c.017-.047.037-.095.058-.141.926-1.975,8.252-5.629,8.393-7.537.041-.582,0-1.183,0-1.767V410.312c0-1.086.511-3.486-.3-4.29-.738-.736-1.624-.884-2.363-1.472-4.211-2.627-6.936-8.264-5.169-13.107a15.786,15.786,0,0,1,1.182-2.8c1.989-2.978,8.984-3.977,12.257-3.977,3.674,0,22.611,1,18.459-5.891a4.615,4.615,0,0,0-1.624-1.325,18.5,18.5,0,0,0-2.954-.884,11.9,11.9,0,0,1-8.27,1.915,9.778,9.778,0,0,1-2.215-.737c-1.034-.442-2.511-1.326-2.363-2.651,1.24,0,2.608.443,3.839.443,0-.585-1.606-3.221.148-4.271a4.192,4.192,0,0,0,1.331,1.472,7.776,7.776,0,0,0,1.476.884s-.33-.84-.513-1.461a3.923,3.923,0,0,1-.247-1.291,4.4,4.4,0,0,1,.022-1.224c.3,0,.444.443.737.738.968,1.438,4.72,2.449,6.351,3.533.886.3,1.921.589,2.805.884,9.973,3.554,6.333,13.256-3.248,13.256-3.321,0-6.606.293-10.043.293-3.218,0-11.664,2.06-7.532,7.218a2.293,2.293,0,0,0,1.181.884c1.022.255,4.312-1.62,6.795-1.62,3.839-.148,7.827,0,11.666,0,2,0,13.408.763,14.474.294Z" transform="translate(-426.57 -369.644)" fill="#d8b770"/>
      <g id="Grupo_13-2" data-name="Grupo 13" clip-path="url(#clip-path-4)">
        <rect id="Retângulo_6-2" data-name="Retângulo 6" width="99.973" height="79.588" transform="translate(-1.144 0)" fill="#d8b770"/>
      </g>
    </g>
    <path id="Caminho_23-2" data-name="Caminho 23" d="M463.67,428.849c-.9.179-12.213,5.66-12.292,5.818-.086.086.59,4.5.59,5.007,0,1.079.146,2.014.146,3.093,0,.952,10.686,9.426,11.226,9.426.185.093,9.189,0,10.189,0,.443,0,.591.148.738-.442v-2.21c0-.907-1.816-1.195-2.51-1.471-3.99-1.592-7.219-3.084-11.076-5.008-1.095-.273,2.987-6.249,3.545-7.805.774-1.542.094-4.811-.555-6.408" transform="translate(-429.192 -369.479)" fill="#d8b770"/>
    <path id="Caminho_24-2" data-name="Caminho 24" d="M503.069,440.832c-.113.9-.757,2.643-.757,3.324,0,.532,4.741,4.534,5.379,5.213,1.685,1.679,3.345,3.405,5,5.062a.664.664,0,0,1,.211.4,42.248,42.248,0,0,1-6.423.285c-.3-.075-9.048-8.419-9.924-9.293-.077-.075-.3-.376-.454-.376,0-.942-.377-4.841-.228-5.592a52.39,52.39,0,0,1,7.2.983" transform="translate(-433.894 -370.642)" fill="#d8b770"/>
    <g id="Grupo_16-2" data-name="Grupo 16" transform="translate(77.098 10.692)">
      <path id="SVGID-16" data-name="SVGID" d="M518.586,382.284a2,2,0,0,1-1.943-.658,1.636,1.636,0,0,1-.123-2.348,1.589,1.589,0,0,1,1.238-.426,2.379,2.379,0,0,1,1.773.957,1.7,1.7,0,0,1-.944,2.475m13.272-2.267c-1.376-2.288-6.436-2.546-9.3-3.976-1.72-.572-2.161-2.752-5.908-.884-4.95,3.708-4.568,10.483-2.068,15.465.957,1.909,2.325,3.239,4.578,3.239,2.373,0,4.775,3.928,7.089,1.621a8.852,8.852,0,0,0,1.33-2.21c.738-1.766,1.624-3.388,2.509-5.154.59-1.179,1.181-2.21,1.772-3.388C532.351,383.266,532.95,381.376,531.858,380.017Z" transform="translate(-512.783 -374.415)" fill="#d8b770"/>
      <g id="Grupo_15-2" data-name="Grupo 15" clip-path="url(#clip-path-5)">
        <rect id="Retângulo_7-2" data-name="Retângulo 7" width="21.252" height="24.499" transform="translate(-1.086 -1.126)" fill="#d8b770"/>
      </g>
    </g>
  </g>
</svg>
