<svg width="123" height="123" viewBox="0 0 123 123" fill="none" xmlns="http://www.w3.org/2000/svg">
<g clip-path="url(#clip0_1_99)">
<path d="M61.5 123C27.5309 123 0 95.4691 0 61.5C0 27.5309 27.5309 0 61.5 0C95.4691 0 123 27.5309 123 61.5C123 95.4691 95.4691 123 61.5 123ZM55.7344 28.8281V61.5C55.7344 63.4219 56.6953 65.2236 58.3049 66.3047L81.3674 81.6797C84.01 83.4574 87.5895 82.7367 89.3672 80.0701C91.1449 77.4035 90.4242 73.848 87.7576 72.0703L67.2656 58.425V28.8281C67.2656 25.633 64.6951 23.0625 61.5 23.0625C58.3049 23.0625 55.7344 25.633 55.7344 28.8281Z" fill="#192451"/>
</g>
<defs>
<clipPath id="clip0_1_99">
<rect width="123" height="123" fill="white"/>
</clipPath>
</defs>
</svg>
