<svg width="97" height="66" viewBox="0 0 97 66" fill="none" xmlns="http://www.w3.org/2000/svg">
<path d="M12.1256 5.99872C12.1256 2.68068 9.41628 -3.82841e-06 6.06279 -3.97499e-06C2.70931 -4.12158e-06 -1.17176e-07 2.68067 -2.62212e-07 5.99872L-1.04885e-06 23.9949C-1.48314e-06 33.9303 8.14688 41.9911 18.1884 41.9911L76.2965 41.9911L62.39 55.7506C60.0217 58.0939 60.0217 61.8993 62.39 64.2426C64.7582 66.5858 68.6043 66.5858 70.9726 64.2426L95.2238 40.2477C97.5921 37.9044 97.5921 34.099 95.2238 31.7557L70.9726 7.76085C68.6043 5.4176 64.7582 5.4176 62.39 7.76085C60.0217 10.1041 60.0217 13.9095 62.39 16.2528L76.2965 29.9936L18.1884 29.9936C14.8349 29.9936 12.1256 27.3129 12.1256 23.9949L12.1256 5.99872Z" fill="#212C56"/>
</svg>
