<svg width="56" height="56" viewBox="0 0 56 56" fill="none" xmlns="http://www.w3.org/2000/svg">
<g clip-path="url(#clip0_1_76)">
<path d="M28 56C43.4656 56 56 43.4656 56 28C56 12.5344 43.4656 0 28 0C12.5344 0 0 12.5344 0 28C0 43.4656 12.5344 56 28 56ZM19.1406 19.1406C20.1688 18.1125 21.8312 18.1125 22.8484 19.1406L27.9891 24.2812L33.1297 19.1406C34.1578 18.1125 35.8203 18.1125 36.8375 19.1406C37.8547 20.1688 37.8656 21.8312 36.8375 22.8484L31.6969 27.9891L36.8375 33.1297C37.8656 34.1578 37.8656 35.8203 36.8375 36.8375C35.8094 37.8547 34.1469 37.8656 33.1297 36.8375L27.9891 31.6969L22.8484 36.8375C21.8203 37.8656 20.1578 37.8656 19.1406 36.8375C18.1234 35.8094 18.1125 34.1469 19.1406 33.1297L24.2812 27.9891L19.1406 22.8484C18.1125 21.8203 18.1125 20.1578 19.1406 19.1406Z" fill="#d71844"/>
</g>
<defs>
<clipPath id="clip0_1_76">
<rect width="56" height="56" fill="white"/>
</clipPath>
</defs>
</svg>
